<?xml version="1.0" standalone="no"?>
<!DOCTYPE svg PUBLIC "-//W3C//DTD SVG 20010904//EN"
 "http://www.w3.org/TR/2001/REC-SVG-20010904/DTD/svg10.dtd">
<svg version="1.0" xmlns="http://www.w3.org/2000/svg"
 width="260.000000pt" height="260.000000pt" viewBox="0 0 260.000000 260.000000"
 preserveAspectRatio="xMidYMid meet">
<metadata>
Created by potrace 1.14, written by Peter Selinger 2001-2017
</metadata>
<g transform="translate(0.000000,260.000000) scale(0.100000,-0.100000)"
fill="#000000" stroke="none">
<path d="M1182 2593 c-18 -4 -21 -9 -16 -31 l5 -27 -16 28 c-9 15 -18 27 -21
27 -5 0 -34 -6 -144 -32 -79 -17 -202 -62 -207 -74 -2 -6 9 -33 25 -60 35 -60
44 -84 33 -84 -5 0 -28 29 -50 65 -23 36 -44 65 -48 65 -29 0 -243 -142 -243
-161 0 -5 11 -14 24 -20 27 -13 57 -69 61 -117 4 -41 43 -93 101 -133 49 -33
62 -33 44 1 -22 41 16 72 39 33 9 -16 12 -16 21 -3 5 8 8 19 7 25 -2 5 7 18
20 28 13 10 23 25 23 33 0 8 7 17 15 20 8 4 15 12 15 20 0 8 4 14 9 14 11 0
-6 58 -20 75 -14 15 -10 35 6 35 8 0 15 -6 15 -13 0 -7 7 -23 16 -35 14 -21
17 -21 42 -7 15 9 47 31 72 50 25 19 52 38 60 41 8 3 22 9 30 14 29 17 115 58
138 64 17 6 22 15 24 44 l1 37 4 -34 c4 -33 5 -33 41 -25 20 4 103 8 184 8
l147 1 -14 22 c-8 12 -15 32 -15 43 0 24 -26 38 -43 21 -16 -16 -24 -14 -30 7
-5 23 -37 30 -173 38 l-104 6 -1 -38 -2 -39 -6 35 c-6 36 -20 43 -69 33z"/>
<path d="M1732 2485 c-29 -30 -24 -39 33 -65 56 -25 57 -25 48 8 -3 15 -6 35
-5 45 0 11 -9 22 -24 27 -31 12 -25 14 -52 -15z"/>
<path d="M1869 2426 c-15 -13 -24 -28 -20 -33 6 -10 40 -30 99 -58 17 -8 32
-19 32 -24 0 -5 17 -20 37 -32 21 -13 45 -31 54 -40 9 -9 21 -18 26 -20 5 -2
22 -21 37 -41 16 -21 33 -38 39 -38 6 0 7 3 4 6 -4 4 2 19 13 34 11 16 20 33
20 38 0 11 -142 131 -181 153 -13 8 -26 16 -29 19 -6 7 -97 60 -102 60 -2 0
-15 -11 -29 -24z"/>
<path d="M1454 2335 c-4 -8 -10 -12 -15 -10 -18 12 -180 -41 -199 -64 -3 -3
-22 -15 -42 -26 -52 -29 -235 -206 -251 -243 -7 -18 -11 -47 -9 -67 3 -29 11
-39 50 -60 25 -14 47 -24 48 -22 7 6 -28 97 -36 97 -5 0 -8 14 -8 30 1 26 4
29 22 24 28 -9 37 -24 31 -53 -13 -53 38 -141 82 -141 13 0 23 -4 23 -10 0 -5
5 -10 10 -10 7 0 10 22 8 57 -3 50 -6 59 -28 70 -27 13 -50 40 -50 58 0 21 40
55 65 55 14 0 32 -11 44 -26 25 -32 26 -38 5 -58 -19 -19 -15 -61 6 -61 8 0
14 -8 14 -18 -2 -14 1 -15 12 -6 17 14 17 14 -2 34 -15 15 -15 17 5 32 19 13
21 21 16 53 -7 44 17 79 41 60 18 -15 55 -9 67 12 9 13 6 21 -11 35 -28 24
-20 73 12 73 21 0 50 -33 51 -57 0 -21 20 -15 23 7 2 11 8 20 13 20 21 0 7 38
-18 49 -24 11 -25 13 -10 28 20 20 47 10 47 -17 0 -13 7 -20 20 -20 24 0 26
22 4 55 -20 30 -12 56 24 77 35 21 65 14 82 -17 14 -27 5 -84 -16 -92 -16 -6
-19 -33 -4 -33 6 0 10 5 10 10 0 17 25 11 48 -10 28 -26 40 -25 69 6 31 34 78
30 114 -9 l27 -28 4 43 c3 24 8 50 11 58 5 9 0 20 -12 27 -16 10 -23 8 -45
-14 -24 -23 -27 -24 -42 -9 -11 11 -14 26 -11 45 5 23 2 30 -19 40 -31 14 -34
14 -34 -2 0 -21 -20 -35 -41 -30 -13 4 -19 14 -19 33 0 34 -17 40 -113 40 -51
0 -69 -4 -73 -15z m-71 -100 c1 -5 -6 -11 -15 -13 -11 -2 -18 3 -18 13 0 17
30 18 33 0z m320 -7 c14 -21 2 -48 -22 -48 -28 0 -36 18 -20 46 14 26 27 27
42 2z m-403 -151 c0 -21 -25 -28 -46 -12 -18 13 -18 14 0 34 16 17 20 18 32 6
8 -7 14 -20 14 -28z"/>
<path d="M301 2124 c-34 -37 -61 -73 -61 -80 0 -8 -4 -14 -8 -14 -5 0 -18 -17
-30 -39 -19 -34 -20 -40 -7 -51 23 -19 18 -33 -10 -26 -22 6 -27 0 -55 -56
-40 -80 -83 -211 -106 -318 -26 -121 -26 -367 0 -472 10 -43 23 -78 27 -78 5
0 9 6 9 14 0 8 9 18 20 21 14 4 19 12 15 24 -4 12 4 20 29 29 19 7 37 19 40
27 3 8 14 12 26 10 12 -2 23 2 27 10 8 21 20 18 26 -6 4 -15 11 -20 22 -15 11
4 23 -2 35 -16 16 -20 21 -21 56 -10 48 14 55 8 15 -12 -17 -9 -38 -33 -47
-54 -19 -39 -79 -102 -98 -102 -7 0 -16 -4 -22 -9 -15 -15 -57 -16 -82 -2 -18
10 -26 10 -38 0 -17 -14 -14 -28 32 -126 32 -72 44 -82 74 -63 13 8 12 11 -5
25 -20 16 -20 16 3 11 18 -3 22 -1 18 11 -4 11 -2 13 9 10 8 -4 17 -2 21 4 3
6 17 14 30 19 15 6 24 18 24 32 1 21 2 21 11 5 6 -9 15 -14 21 -11 20 13 79
14 72 2 -5 -8 -2 -9 9 -5 10 4 17 2 17 -4 0 -7 7 -8 18 -4 47 19 48 19 30 -2
-19 -21 -24 -38 -8 -28 5 3 26 8 47 11 l37 4 -27 -28 c-15 -15 -27 -32 -27
-37 0 -5 -8 -17 -17 -28 -13 -15 -15 -21 -6 -24 18 -6 -3 -43 -23 -43 -8 0
-12 -4 -9 -10 3 -5 2 -10 -4 -10 -5 0 -26 -15 -45 -33 -20 -19 -50 -38 -68
-43 -42 -12 -42 -32 0 -78 l33 -37 35 21 c41 26 44 20 7 -15 l-28 -26 40 -34
c22 -19 51 -45 65 -57 66 -62 246 -178 274 -178 11 0 77 133 76 153 -4 50 1
70 29 98 22 21 39 29 65 29 29 0 38 5 51 30 20 38 27 39 14 0 -9 -24 -7 -33
10 -51 12 -13 21 -35 21 -50 0 -52 16 -38 59 52 24 49 45 88 48 86 2 -2 -10
-40 -27 -83 -28 -72 -40 -164 -22 -164 12 0 28 14 40 35 11 18 12 18 6 -6 -3
-15 -1 -30 5 -33 5 -4 8 -13 4 -21 -3 -9 1 -15 9 -15 38 0 98 148 98 241 0 91
-64 285 -117 356 -21 28 -30 33 -67 33 -23 0 -68 -5 -99 -11 -84 -17 -144 -5
-184 38 -29 30 -33 41 -33 91 0 47 -6 65 -30 101 -17 25 -28 52 -25 61 3 10
-1 23 -10 30 -8 7 -15 28 -15 49 0 31 -7 42 -44 73 -46 39 -66 92 -38 103 8 3
12 11 9 18 -2 7 11 28 29 47 19 19 36 42 40 52 3 10 10 18 15 18 5 0 9 6 7 13
-1 6 3 28 10 47 6 19 11 80 10 135 -1 78 4 119 22 185 l23 84 -33 26 c-18 14
-58 48 -88 75 -53 49 -55 50 -109 47 -54 -4 -55 -3 -98 42 l-43 46 -61 -66z
m74 -392 c84 -46 62 -86 -26 -47 -50 22 -72 42 -66 60 9 22 35 18 92 -13z
m-60 -182 c-5 -8 -11 -8 -17 -2 -6 6 -7 16 -3 22 5 8 11 8 17 2 6 -6 7 -16 3
-22z m-250 -355 c0 -11 -8 -21 -17 -23 -14 -3 -18 3 -18 23 0 20 4 26 18 23 9
-2 17 -12 17 -23z m445 -45 c0 -21 -24 -28 -35 -10 -8 14 3 30 21 30 8 0 14
-9 14 -20z m-74 -177 c-10 -10 -19 5 -10 18 6 11 8 11 12 0 2 -7 1 -15 -2 -18z
m44 -73 c0 -5 -5 -10 -11 -10 -5 0 -7 5 -4 10 3 6 8 10 11 10 2 0 4 -4 4 -10z
m211 -283 c-13 -13 -26 -3 -16 12 3 6 11 8 17 5 6 -4 6 -10 -1 -17z m209 -112
c0 -8 -4 -15 -10 -15 -5 0 -10 7 -10 15 0 8 5 15 10 15 6 0 10 -7 10 -15z
m-264 -43 c23 -14 25 -48 4 -69 -29 -32 -61 -39 -77 -17 -19 25 -16 44 9 71
22 23 44 29 64 15z m530 -33 c10 -17 -13 -36 -27 -22 -12 12 -4 33 11 33 5 0
12 -5 16 -11z"/>
<path d="M1923 2173 c-20 -8 -15 -27 12 -47 14 -10 25 -25 25 -32 0 -8 19 -23
42 -34 62 -30 68 -27 48 26 -8 21 -14 24 -22 16 -29 -29 -58 -8 -58 43 0 18
-21 40 -33 34 -1 0 -8 -3 -14 -6z"/>
<path d="M1547 2144 c9 -15 19 -21 21 -15 4 13 -16 41 -29 41 -5 0 -2 -12 8
-26z"/>
<path d="M2233 2129 c-18 -12 -33 -23 -33 -25 0 -3 10 -24 21 -47 22 -43 38
-59 50 -51 13 8 21 -16 10 -30 -8 -10 -6 -17 8 -30 10 -9 21 -30 25 -47 4 -19
12 -29 24 -29 22 0 64 29 57 40 -3 4 2 13 9 19 11 9 12 19 5 39 -11 31 -119
174 -134 179 -5 1 -25 -7 -42 -18z m77 -64 c0 -8 -6 -15 -14 -15 -17 0 -28 14
-19 24 12 12 33 6 33 -9z m50 -75 c0 -13 -7 -20 -20 -20 -19 0 -27 20 -13 33
13 14 33 6 33 -13z"/>
<path d="M2107 1983 c-9 -9 -9 -43 1 -43 18 1 32 18 26 33 -6 18 -16 21 -27
10z"/>
<path d="M910 1863 c0 -5 7 -48 16 -98 8 -49 13 -102 10 -117 -3 -17 1 -35 14
-51 27 -34 25 -45 -3 -19 l-24 22 -26 -20 c-30 -24 -82 -36 -91 -21 -12 19
-33 1 -28 -25 4 -23 7 -24 51 -18 25 4 56 11 69 15 48 18 60 12 68 -36 6 -41
2 -66 -21 -142 -9 -29 10 -30 99 -7 80 20 110 55 64 74 -17 6 -18 9 -6 9 32 2
29 21 -9 57 l-38 36 52 -5 c54 -4 76 10 48 33 -7 6 -16 22 -19 35 -4 17 -13
25 -29 25 -12 0 -28 4 -36 9 -11 7 -9 11 8 20 27 15 26 27 -4 104 -23 57 -30
65 -84 95 -58 32 -81 39 -81 25z"/>
<path d="M2371 1817 c-13 -6 -23 -16 -23 -22 4 -48 16 -112 24 -125 8 -12 5
-28 -11 -58 -11 -23 -21 -44 -21 -47 0 -3 15 -5 33 -6 l32 -1 -42 -15 c-35
-12 -43 -19 -43 -39 0 -13 4 -24 9 -24 11 0 22 -55 14 -75 -9 -25 -55 -15 -70
15 -7 13 -8 27 -4 30 14 9 31 47 24 54 -18 17 -54 3 -86 -34 -25 -29 -42 -40
-63 -40 -16 0 -24 -4 -17 -8 17 -11 4 -60 -18 -67 -15 -5 -18 -13 -13 -39 3
-22 0 -37 -9 -45 -15 -12 -50 -5 -42 9 8 12 -35 20 -58 10 -21 -8 -21 -9 3
-10 24 -2 24 -2 -5 -12 -16 -6 -36 -15 -43 -21 -9 -7 -11 -5 -6 9 6 16 3 15
-19 -5 -16 -15 -27 -19 -27 -12 0 11 -3 11 -15 1 -8 -7 -22 -10 -30 -6 -9 3
-18 0 -21 -8 -3 -8 -15 -11 -30 -8 -19 3 -24 9 -21 23 6 22 -1 23 -37 9 -18
-7 -26 -17 -26 -34 0 -29 -19 -44 -31 -25 -6 10 -13 8 -31 -13 -28 -31 -94
-67 -85 -47 3 8 13 31 22 53 16 37 16 38 -2 31 -67 -27 -120 -27 -172 -1 -29
15 -40 16 -84 5 -29 -6 -56 -15 -62 -19 -5 -4 -26 -12 -45 -19 -19 -6 -64 -34
-100 -61 -146 -113 -151 -114 -55 -9 64 70 80 97 49 85 -9 -3 -28 -9 -42 -12
l-27 -5 25 20 c95 80 120 106 114 123 -3 10 -2 23 3 30 16 26 12 46 -10 52
-24 6 -51 -13 -29 -21 29 -11 10 -32 -35 -38 -89 -13 -177 -36 -194 -51 -10
-9 -21 -35 -24 -57 -4 -23 -15 -55 -24 -72 -11 -21 -16 -55 -16 -110 0 -44 -7
-101 -15 -127 -13 -44 -12 -49 5 -68 21 -23 68 -26 158 -10 109 21 157 -10
221 -137 20 -40 42 -73 49 -73 8 0 21 21 29 48 l16 47 2 -70 c2 -38 3 -85 3
-102 0 -18 4 -33 9 -33 5 0 4 -9 -2 -20 -8 -15 -8 -20 1 -20 8 0 8 -4 2 -12
-6 -7 -13 -21 -17 -32 -5 -14 -2 -17 10 -12 12 4 11 -1 -5 -23 -22 -31 -27
-46 -12 -37 5 3 0 -11 -10 -31 -15 -29 -16 -39 -6 -46 9 -7 9 -10 0 -14 -21
-8 -14 -22 8 -16 31 8 60 62 75 138 24 127 42 206 47 212 13 13 11 -129 -3
-177 -17 -59 25 -26 70 55 55 100 60 109 83 146 34 55 63 89 78 89 12 0 12 -2
1 -9 -7 -4 -14 -14 -15 -22 -2 -8 -13 -29 -25 -46 -12 -17 -22 -38 -22 -46 0
-9 -5 -19 -10 -22 -12 -7 -53 -85 -45 -85 2 0 -6 -20 -20 -44 -13 -24 -22 -46
-18 -49 3 -4 22 6 42 22 20 15 47 34 61 41 23 12 24 12 11 -3 -16 -20 -4 -22
36 -6 15 6 66 11 112 10 99 -2 175 -28 226 -75 45 -43 44 -34 -2 33 -67 94
-181 298 -186 332 -2 9 -9 24 -16 33 -7 9 -9 16 -3 16 5 0 12 16 14 35 4 31 2
34 -17 29 -16 -5 -13 1 13 28 18 19 29 37 26 41 -4 3 5 12 20 18 17 8 23 16
17 23 -7 8 -1 15 17 23 15 6 45 19 67 29 l40 17 -35 7 c-25 5 -28 8 -11 9 13
0 41 6 63 13 l39 12 -28 12 -28 12 38 1 c43 1 89 37 66 52 -10 6 -8 9 10 9 18
0 22 4 18 20 -3 11 -1 20 5 20 6 0 8 9 5 20 -3 13 0 20 9 20 15 0 13 -18 -7
-87 -12 -38 -82 -106 -164 -157 -125 -79 -155 -127 -135 -219 14 -69 60 -159
162 -318 65 -101 88 -129 105 -129 29 0 38 16 16 29 -17 9 -17 10 1 30 11 12
16 29 13 41 -5 18 -1 21 21 19 33 -3 72 9 72 22 0 17 18 9 23 -11 8 -31 35
-35 63 -9 32 30 144 198 144 216 0 14 18 49 35 68 6 7 26 53 44 105 34 91 35
93 15 108 -16 13 -17 14 -1 9 19 -7 30 13 42 77 8 39 12 36 -95 74 l-54 20 59
-3 c33 -2 69 -5 79 -7 16 -2 21 5 29 37 18 82 -14 429 -43 459 -6 5 -15 4 -24
-3 -20 -17 -56 3 -56 30 0 14 9 21 31 26 28 5 30 9 25 36 -10 51 -43 94 -77
101 -43 8 -50 8 -78 -7z m47 -95 c2 -7 -3 -12 -12 -12 -9 0 -16 7 -16 16 0 17
22 14 28 -4z m-178 -367 c16 -20 6 -45 -19 -45 -25 0 -34 14 -26 40 8 24 28
26 45 5z m-45 -204 c0 -8 -8 -19 -17 -25 -22 -13 -44 5 -34 29 7 20 51 16 51
-4z m182 13 c-3 -3 -12 -4 -19 -1 -8 3 -5 6 6 6 11 1 17 -2 13 -5z m-647 -74
c0 -6 -7 -13 -15 -16 -9 -4 -14 -13 -13 -22 2 -9 -5 -18 -14 -20 -10 -2 -18 1
-18 7 0 6 5 11 12 11 6 0 8 3 5 7 -8 7 21 43 35 43 4 0 8 -5 8 -10z m-40 -85
c-14 -16 -40 -20 -40 -6 0 10 17 19 39 20 11 1 11 -2 1 -14z m-54 -60 c-21
-16 -32 -13 -21 4 3 6 14 11 23 11 15 -1 15 -2 -2 -15z m-586 -10 c0 -8 -4
-15 -9 -15 -13 0 -22 16 -14 24 11 11 23 6 23 -9z m1373 -60 c28 -26 37 -77
17 -90 -8 -5 -8 -11 0 -20 15 -18 -65 10 -101 36 -31 22 -30 40 5 76 28 29 46
28 79 -2z m-808 -15 c-3 -5 -14 -10 -23 -10 -15 0 -15 2 -2 10 20 13 33 13 25
0z m105 -50 c-6 -11 -15 -20 -20 -20 -6 0 -5 9 2 20 7 11 16 20 21 20 4 0 3
-9 -3 -20z m-115 -9 c6 -11 -33 -26 -43 -16 -4 3 0 10 8 15 19 12 27 12 35 1z
m315 -10 c0 -26 -17 -36 -35 -21 -18 15 -8 40 16 40 12 0 19 -7 19 -19z m-240
-25 c0 -2 -8 -10 -17 -17 -16 -13 -17 -12 -4 4 13 16 21 21 21 13z"/>
<path d="M2187 1733 c-3 -5 1 -13 8 -20 10 -10 16 -9 24 1 9 10 8 15 -5 20
-20 8 -22 8 -27 -1z"/>
<path d="M2230 1675 c0 -8 4 -15 10 -15 5 0 7 7 4 15 -4 8 -8 15 -10 15 -2 0
-4 -7 -4 -15z"/>
<path d="M2230 1586 c0 -8 -5 -16 -12 -18 -6 -2 -8 -10 -4 -16 10 -16 26 -15
26 2 0 8 5 16 12 18 6 2 8 10 4 16 -10 16 -26 15 -26 -2z"/>
<path d="M2150 1465 c-10 -12 -10 -15 4 -15 9 0 16 7 16 15 0 8 -2 15 -4 15
-2 0 -9 -7 -16 -15z"/>
<path d="M725 1277 c-9 -46 0 -59 16 -24 8 17 8 30 1 43 -9 16 -11 13 -17 -19z"/>
<path d="M1699 440 c-65 -11 -142 -47 -133 -61 4 -7 9 -7 13 -1 10 16 134 42
192 41 l54 -2 -70 -7 c-89 -10 -179 -45 -274 -107 -108 -72 -345 -283 -324
-290 7 -3 49 28 92 68 109 99 261 212 261 195 0 -3 -26 -23 -58 -44 -85 -58
-254 -211 -246 -224 17 -27 436 20 469 53 5 5 17 9 28 9 21 0 155 54 182 74
16 12 16 15 -4 54 -11 23 -21 47 -21 54 1 7 12 -8 25 -34 14 -26 28 -49 33
-52 9 -6 94 46 130 79 24 22 25 26 12 51 -58 107 -215 170 -361 144z m168 -78
c6 -4 -32 -7 -85 -7 -84 0 -106 -4 -162 -28 -92 -40 -102 -42 -45 -11 28 15
68 33 90 40 44 14 183 18 202 6z m-247 -164 c23 -25 25 -46 8 -83 -15 -33 -71
-36 -88 -5 -18 34 -8 83 20 97 33 17 36 16 60 -9z m220 12 c0 -5 -4 -10 -10
-10 -5 0 -10 5 -10 10 0 6 5 10 10 10 6 0 10 -4 10 -10z"/>
<path d="M1407 379 c-5 -20 -5 -20 14 -3 23 20 23 24 5 24 -7 0 -16 -9 -19
-21z"/>
<path d="M2080 326 c0 -18 27 -39 40 -31 7 4 7 12 0 26 -12 22 -40 26 -40 5z"/>
<path d="M805 189 c-33 -52 -40 -69 -27 -69 6 0 14 9 17 20 3 11 13 20 21 20
13 0 34 37 34 61 0 21 -21 6 -45 -32z"/>
<path d="M1255 165 c-27 -24 -47 -46 -44 -49 3 -3 27 17 54 44 61 62 56 64
-10 5z"/>
<path d="M1103 162 c-7 -4 -10 -16 -8 -27 2 -11 4 -23 4 -27 1 -5 6 -8 12 -8
5 0 8 4 5 9 -3 4 1 17 9 27 8 10 15 22 15 27 0 9 -22 9 -37 -1z"/>
<path d="M1076 75 c8 -19 24 -19 24 0 0 8 -7 15 -15 15 -9 0 -12 -6 -9 -15z"/>
<path d="M1060 35 c0 -9 5 -15 11 -13 6 2 11 8 11 13 0 5 -5 11 -11 13 -6 2
-11 -4 -11 -13z"/>
</g>
</svg>
